# Blender v2.78 (sub 0) OBJ File: ''
# www.blender.org
mtllib LowPoly.mtl
o Lowpoly_Cube.001
v -0.911525 0.000000 1.000000
v -1.000000 0.000000 0.911525
v -0.911525 1.854087 1.000000
v -1.000000 1.854087 0.911525
v -1.000000 0.000000 -0.911525
v -0.911525 0.000000 -1.000000
v -1.000000 1.854087 -0.911525
v -0.911525 1.854087 -1.000000
v 1.000000 0.000000 0.911525
v 0.911525 0.000000 1.000000
v 1.000000 1.854087 0.911525
v 0.911525 1.854087 1.000000
v 0.911525 0.000000 -1.000000
v 1.000000 0.000000 -0.911525
v 0.911525 1.854087 -1.000000
v 1.000000 1.854087 -0.911525
v -0.859437 2.000000 0.770962
v -0.770962 2.000000 0.859437
v -0.770962 2.000000 -0.859437
v -0.859437 2.000000 -0.770962
v 0.859437 2.000000 -0.770962
v 0.770962 2.000000 -0.859437
v 0.770962 2.000000 0.859437
v 0.859437 2.000000 0.770962
v 0.952577 1.934911 -0.864102
v 0.864101 1.934911 -0.952577
v 0.952577 1.934911 0.864101
v 0.864102 1.934911 0.952577
v -0.952577 1.934911 0.864102
v -0.864101 1.934911 0.952577
v -0.952577 1.934911 -0.864101
v -0.864102 1.934911 -0.952577
vt 1.0000 -0.0000
vt 1.0000 0.3178
vt 0.6875 0.3178
vt 0.6875 0.0000
vt 0.4085 0.6660
vt 0.6962 0.6660
vt 0.6887 0.6807
vt 0.4160 0.6807
vt 0.0451 0.9531
vt 0.3337 0.9535
vt 0.3271 0.9686
vt 0.0514 0.9688
vt 0.9919 0.3339
vt 0.6957 0.3339
vt 0.3709 0.6475
vt 0.0238 0.6300
vt 0.9759 0.3533
vt 0.7116 0.3533
vt 0.6740 0.6987
vt 0.4307 0.6987
vt 0.3138 0.9877
vt 0.0644 0.9884
vt 0.0451 0.3231
vt 0.3337 0.3235
vt 0.3271 0.3386
vt 0.0514 0.3388
vt 0.6962 0.3733
vt 0.4085 0.3733
vt 0.3138 0.3577
vt 0.0644 0.3584
vt 0.3918 0.0200
vt 0.3535 0.3296
vt 0.3709 0.0175
vt 0.0241 0.3299
vt -0.0000 0.0017
vt 0.0238 -0.0000
vt 0.3918 0.6500
vt 0.3535 0.9596
vt 0.0241 0.9599
vt 0.0000 0.6317
vt 0.3462 0.9775
vt 0.3327 1.0000
vt 0.0323 0.9783
vt 0.3462 0.3475
vt 0.3327 0.3700
vt 0.0323 0.3483
vt 0.0459 1.0000
vt 0.0459 0.3700
vt 0.9847 1.0000
vt 0.9848 0.7054
vt 1.0000 0.7206
vt 0.9999 0.9848
vt 0.7206 0.7053
vt 0.7204 0.9999
vt 0.7053 0.9847
vt 0.7054 0.7204
vn 0.3827 0.0000 0.9239
vn 0.3823 0.3036 0.8727
vn -0.3823 0.3036 0.8727
vn -0.3827 0.0000 0.9239
vn 0.3823 0.3036 -0.8727
vn -0.3823 0.3036 -0.8727
vn -0.2372 0.7341 -0.6362
vn 0.2372 0.7341 -0.6362
vn 0.8727 0.3036 0.3823
vn 0.8727 0.3036 -0.3823
vn 0.6362 0.7341 -0.2372
vn 0.6362 0.7341 0.2372
vn 0.2372 0.7341 0.6362
vn -0.2372 0.7341 0.6362
vn 0.9239 0.0000 -0.3827
vn 0.9239 0.0000 0.3827
vn 0.0832 0.9497 0.3019
vn -0.0832 0.9497 0.3019
vn -0.0832 0.9497 -0.3019
vn 0.0832 0.9497 -0.3019
vn 0.3019 0.9497 -0.0832
vn 0.3019 0.9497 0.0832
vn -0.8727 0.3036 -0.3823
vn -0.8727 0.3036 0.3823
vn -0.6362 0.7341 0.2372
vn -0.6362 0.7341 -0.2372
vn -0.3827 0.0000 -0.9239
vn 0.3827 0.0000 -0.9239
vn -0.3019 0.9497 0.0832
vn -0.3019 0.9497 -0.0832
vn -0.9239 0.0000 0.3827
vn -0.9239 0.0000 -0.3827
usemtl None
s 1
f 10/1/1 12/2/2 3/3/3 1/4/4
f 15/5/5 8/6/6 32/7/7 26/8/8
f 11/9/9 16/10/10 25/11/11 27/12/12
f 3/3/3 12/2/2 28/13/13 30/14/14
f 14/15/15 16/10/10 11/9/9 9/16/16
f 30/14/14 28/13/13 23/17/17 18/18/18
f 26/8/8 32/7/7 19/19/19 22/20/20
f 27/12/12 25/11/11 21/21/21 24/22/22
f 7/23/23 4/24/24 29/25/25 31/26/26
f 6/27/27 8/6/6 15/5/5 13/28/28
f 31/26/26 29/25/25 17/29/29 20/30/30
f 1/31/4 3/32/3 4/24/24 2/33/31
f 8/34/6 6/35/27 5/36/32 7/23/23
f 16/10/10 14/15/15 13/37/28 15/38/5
f 12/39/2 10/40/1 9/16/16 11/9/9
f 26/41/8 22/42/20 21/21/21 25/11/11
f 28/43/13 12/39/2 11/9/9 27/12/12
f 30/44/14 18/45/18 17/29/29 29/25/25
f 32/46/7 8/34/6 7/23/23 31/26/26
f 15/38/5 26/41/8 25/11/11 16/10/10
f 23/47/17 28/43/13 27/12/12 24/22/22
f 3/32/3 30/44/14 29/25/25 4/24/24
f 19/48/19 32/46/7 31/26/26 20/30/30
f 2/33/31 4/24/24 7/23/23 5/36/32
f 22/49/20 23/50/17 24/51/22 21/52/21
f 18/53/18 19/54/19 20/55/30 17/56/29
f 22/49/20 19/54/19 18/53/18 23/50/17
